<svg width="280" height="48" viewBox="0 0 280 48" fill="none" xmlns="http://www.w3.org/2000/svg">
  <!-- Shield icon -->
  <path d="M24 4L6 10V22C6 34.8 13.6 44.4 24 48C34.4 44.4 42 34.8 42 22V10L24 4Z" fill="#0d9488"/>
  <path d="M24 7L9 12V22C9 33 15.6 41.6 24 44.8C32.4 41.6 39 33 39 22V12L24 7Z" fill="#0f766e"/>

  <!-- Sound waveform bars -->
  <rect x="15" y="21" width="3" height="6" rx="1.5" fill="white"/>
  <rect x="20" y="18" width="3" height="12" rx="1.5" fill="white"/>
  <rect x="25" y="15" width="3" height="18" rx="1.5" fill="white"/>
  <rect x="30" y="18" width="3" height="12" rx="1.5" fill="white"/>
  <rect x="35" y="21" width="3" height="6" rx="1.5" fill="white"/>

  <!-- Wordmark -->
  <text x="54" y="33" font-family="-apple-system, BlinkMacSystemFont, 'Segoe UI', Roboto, sans-serif" font-size="24" font-weight="700" fill="#1e293b">MurmurTone</text>
</svg>
